<svg version="1" xmlns="http://www.w3.org/2000/svg" width="933.333" height="933.333" viewBox="0 0 700.000000 700.000000"><path d="M7 2.1c-3.8 1.6-6 4-6 6.5 0 4.1 3.4 5.1 18.5 5.8 20.8.9 36.2 5.3 45.3 13.1C73.3 34.8 78 49.1 79.5 72c.3 4.7.8 11.4 1.1 15 .6 7.9.6 454.2-.1 476-.8 26.7-1.4 43.3-2 50-.8 9.2-2.3 22.1-3 25-.3 1.4-.8 4.3-1.1 6.5-.9 6.4-5.3 21.2-7.5 25.3-4.1 7.3-10.8 11.7-20.9 13.6-1.4.3-3.6.7-5 1-1.4.4-6.8.9-12 1.2-5.4.4-10.5 1.2-11.7 2-3.3 2.1-3.1 6.6.4 9 2.5 1.7 4.9 1.9 26.3 1.8 12.9 0 32.9-.4 44.5-.9 25.1-1 31.2-1 56-.2 44 1.6 89 1.9 93.3.8 5.8-1.6 8.4-5.8 5.9-9.8-.9-1.4-5.4-2.1-18.2-2.8-20-1-35.8-3.5-43.7-6.8-5.3-2.2-11.6-8.4-14-13.6-2.4-5.2-5.5-15.6-6.3-21.1-.3-1.9-.7-4.5-.9-5.5-.2-1.1-.7-5.4-1.1-9.5-.4-4.1-.9-8.6-1-10-.5-3.8-1.7-24.8-2.1-36.3-.2-5.6-.6-47.7-.9-93.4-.5-82.6-.5-83.3 1.5-85.3 1.6-1.6 5.2-2.5 9-2.2.3 0 20.3.3 44.5.7 73.8 1.1 68.7.8 73.4 4.1 2.2 1.6 4.6 4 5.5 5.4.8 1.4 2.4 3.6 3.5 5 3.4 4.2 25.3 33.9 46.3 62.8 28 38.5 55.8 75.7 78.7 105.2 7.2 9.4 33 41.9 34.6 43.6.5.6 3 3.6 5.5 6.5 12.3 14.8 32.4 32.9 45.5 41.1 10.6 6.6 26 14 31.9 15.3 1.2.2 4.6 1.1 7.6 2 3 .8 7.3 1.7 9.5 2 2.2.3 5.4.8 7 1 1.7.3 5.3.8 8 1.1 7.6.9 116.1 1.7 122.3.9 6-.7 9.2-3.1 9.2-6.9 0-3.3-2.2-4.8-7.7-5.1-2.7-.2-8.6-.6-13.3-1-4.7-.3-9.8-.7-11.5-.9-1.6-.2-5.7-.7-9-1-19-2.2-50.7-14.2-68.3-25.9-19.9-13.3-48.7-40.9-75.3-72.2-1.9-2.2-3.6-4.2-4-4.5-4.2-3.8-66.2-80.1-76.4-94.1-1.1-1.5-10.8-13.9-21.5-27.4-10.7-13.6-20.4-25.9-21.5-27.4-2.7-3.7-15.7-20.3-17-21.7-1.5-1.8-3.4-4.1-11-13.9-3.8-5-7.3-9.5-7.7-10-.5-.6-1.7-2.1-2.7-3.5l-1.9-2.5 13.6-13.5c45.2-44.7 70.6-82.4 85.8-127.5 3.3-9.8 8.1-28.9 8.9-35.5.4-3 .9-5.8 1.1-6.1.7-1.2 1.8-18.7 1.8-29.9 0-11-.9-23.3-1.8-26.1-.3-.8-.7-3.1-1-5.1-.3-2-2.2-8.5-4.2-14.5-10-30-27.9-56.4-51.9-76.7-21.7-18.5-57.6-34.1-87.5-38.1-2.5-.3-6.5-.8-9-1.2-2.5-.3-5.3-.7-6.3-.9-1-.2-4.8-.6-8.5-.9-3.7-.4-7.8-.8-9.2-1-13.1-2.1-73.3-2.6-123.5-1-27.3.9-53.8.9-70 0C67.6 1.4 9.4 1.1 7 2.1zm237.5 29.4c2.8.3 6.8.8 9 1.1 2.2.2 6.3 1 9 1.6 2.8.7 5.2 1.3 5.5 1.3 8.5 1.7 21.3 6.2 30.6 10.8 38.4 19 66 55.3 77.8 102.7 2.1 8.2 3.3 15 6.1 33.5 1.4 8.9 1.3 54 0 64.9-3.7 28.8-8.3 44.6-19.6 66.8-12.9 25.2-28.6 41.5-49.2 51.1-6.8 3.2-18 6.4-25.2 7.2-2.7.3-7.5.9-10.5 1.3-10.7 1.3-62.2.3-65-1.3-.3-.1-3.2-.6-6.5-.9-3.3-.4-8.2-1.1-11-1.6-2.7-.5-6.1-1.1-7.5-1.4-8-1.3-17.9-4.4-23.2-7-10.8-5.5-9.8 12.2-9.8-162.6 0-101 .4-153.7 1-156.2.8-2.9 1.9-4.1 5.3-5.6 2.3-1.1 6.2-2.3 8.7-2.6 7.5-1 13.4-1.8 16-2.2 1.4-.2 7.5-.7 13.5-1 6.1-.4 11.1-.7 11.2-.8.5-.4 29.4.3 33.8.9z"/></svg>